<svg class="jss110" width="16" height="16" viewBox="0 0 1040 1024" xmlns="http://www.w3.org/2000/svg" style="display: flex; vertical-align: middle; min-width: auto;"><path d="M681.824 561.18c-0.003 0-0.007 0-0.011 0-35.487 0-67.334 15.609-89.038 40.337l-0.116 0.137-55.825-39.529c5.906-15.51 9.327-33.443 9.327-52.182 0-18.413-3.304-36.052-9.354-52.359l0.338 1.044 55.702-39.11c21.811 24.572 53.484 39.979 88.749 39.979 65.446 0 118.498-53.052 118.498-118.498s-53.052-118.498-118.498-118.498c-65.446 0-118.498 53.052-118.498 118.498 0 12.033 1.795 23.644 5.127 34.586l-0.219-0.837-55.773 39.11c-23.304-28.769-56.388-48.82-94.128-55.090l-0.891-0.124v-67.172c54.463-11.647 94.714-59.365 94.714-116.484 0-65.715-53.27-118.987-118.987-118.987s-118.987 53.27-118.987 118.987c0 56.23 39.009 103.355 91.439 115.784l0.809 0.161v68.061c-72.532 13.035-126.853 75.666-126.853 150.976 0 75.694 54.869 138.574 127.008 151.028l0.912 0.132v71.872c-53.794 12.119-93.377 59.495-93.377 116.115 0 65.657 53.224 118.881 118.881 118.881s118.881-53.224 118.881-118.881c0-56.621-39.583-103.996-92.582-115.966l-0.795-0.149v-71.852c37.907-6.541 70.359-26.202 93.197-54.051l0.213-0.268 56.208 39.772c-3.039 9.996-4.786 21.479-4.786 33.373 0 65.588 53.17 118.759 118.759 118.759s118.759-53.17 118.759-118.759c0-65.588-53.17-118.759-118.759-118.759-0.015 0-0.028 0-0.039 0h0.002zM681.824 283.399c31.816 0 57.603 25.792 57.603 57.603s-25.792 57.603-57.603 57.603c-31.816 0-57.603-25.792-57.603-57.603v0c0.049-31.794 25.81-57.554 57.598-57.603h0.005zM335.19 175.3c0-0.028 0-0.057 0-0.085 0-31.816 25.792-57.603 57.603-57.603s57.603 25.792 57.603 57.603c0 31.816-25.792 57.603-57.603 57.603-0.007 0-0.014 0-0.021 0h0.001c-31.758-0.060-57.486-25.768-57.59-57.508v-0.011zM450.384 849.036c0 31.816-25.792 57.603-57.603 57.603s-57.603-25.792-57.603-57.603c0-31.816 25.792-57.603 57.603-57.603v0c31.794 0.049 57.554 25.81 57.603 57.598v0.005zM392.78 590.289c-44.417 0-80.42-36.003-80.42-80.42s36.003-80.42 80.42-80.42c44.417 0 80.42 36.003 80.42 80.42 0 0.028 0 0.062 0 0.089v-0.005c-0.049 44.374-36.038 80.337-80.42 80.337 0 0 0 0 0 0v0zM681.824 737.58c-0.028 0-0.057 0-0.085 0-31.816 0-57.603-25.792-57.603-57.603s25.792-57.603 57.603-57.603c31.816 0 57.603 25.792 57.603 57.603v0c-0.049 31.794-25.81 57.554-57.598 57.603h-0.005z" fill="rgb(106, 255, 225)"></path></svg>