<svg class="jss110" width="16" height="16" viewBox="0 0 1024 1024" xmlns="http://www.w3.org/2000/svg" style="display: flex; vertical-align: middle; min-width: auto;"><path d="M834.243 206.377c17.911-23.204 33.38-49.696 45.223-78.079l0.857-2.316c8.327 20.274 17.108 46.314 24.464 72.946l1.248 5.298c23.050 78.121 47.268 164.383 53.565 258.324 0.773 10.741 1.214 23.272 1.214 35.907s-0.441 25.165-1.308 37.579l0.094-1.672c-12.831 183.112-111.555 314.634-248.556 381.594-57.278 29.107-124.899 46.159-196.502 46.159-84.143 0-162.787-23.547-229.701-64.411l1.939 1.101c-18.205-10.879-33.975-22.562-48.488-35.615l0.278 0.246c1.407 0.158 3.039 0.249 4.691 0.249 19.854 0 36.662-13.040 42.327-31.023l0.085-0.314c13.588-65.188-91.136-72.54-83.569-3.215-1.751 4.096-3.86-1.761-4.28-2.14-25.715-24.688-47.776-52.904-65.472-83.931l-0.955-1.818c-19.762-33.324-35.908-71.865-46.427-112.668l-0.677-3.096c-7.95-32.164-12.511-69.088-12.511-107.077 0-61.804 12.072-120.788 33.986-174.724l-1.117 3.109c31.107-74.677 79.491-136.843 140.362-183.544l1.053-0.776c55.781-43.127 123.78-73.18 197.96-84.379l2.386-0.296c22.33-3.781 48.055-5.943 74.284-5.943 8.164 0 16.28 0.209 24.341 0.623l-1.13-0.046c128.246 8.407 219.32 66.56 290.345 133.99zM869.601 179.579c-5.808 12.726-12.981 23.678-21.546 33.371l0.124-0.143c-36.116 50.35-83.395 85.094-138.24 113.664-26.177 14.544-56.493 26.664-88.402 34.794l-2.662 0.575c-32.91 7.152-71.536 12.141-111.005 13.884l-1.492 0.052c-7.598 0.492-14.858-0.532-22.528 0-39.115 1.516-76.162 7.68-111.453 17.963l3.247-0.811c-77.076 25.108-136.192 76.042-161.792 152.207-5.577 14.969-9.73 32.394-11.699 50.474l-0.087 0.982c-5.54 69.53 17.705 123.249 55.716 152.207 6.97 5.911 15.157 10.649 24.101 13.773l0.537 0.163c8.255-0.603 15.926-2.129 23.224-4.485l-0.696 0.194c22.979-4.966 48.128-9.984 68.608-15.012 31.642-7.772 61.757-16.159 87.849-23.552 40.271-10.075 74.883-22.183 108.017-37.004l-4.091 1.635c21.417-10.582 38.952-20.565 55.887-31.403l-2.322 1.39c93.624-58.153 167.045-130.171 214.272-231.526 0 1.024-0.87 1.28-1.024 2.14-7.792 31.373-18.44 58.855-32.035 84.537l0.967-2.002c-63.356 121.698-169.162 213.974-297.344 258.284l-3.712 1.116c-54.866 18.432-113.254 31.744-168.202 55.736 25.6 0.358 51.2-5.571 80.353-4.291 30.484 1.341 57.539 1.249 86.784 3.215 24.034 2.194 51.982 3.445 80.222 3.445 17.379 0 34.648-0.474 51.793-1.409l-2.387 0.104c96.481-7.322 172.349-31.293 227.133-81.459 26.061-25.747 46.796-56.819 60.447-91.458l0.624-1.797c15.134-37.643 24.77-81.221 26.699-126.794l0.027-0.807c0.575-7.698 0.902-16.675 0.902-25.728s-0.328-18.030-0.972-26.919l0.069 1.191c-4.275-59.268-12.636-113.865-24.96-166.942l1.408 7.198c-2.714-12.063-6.625-23.552-9.646-35.369-4.915-19.261-9.472-35.942-15.002-53.596-0.963-3.072-1.167-6.574-2.14-9.646-0.86-2.703-3.471-4.864-4.291-7.506-2.857-9.339-4.772-19.456-7.496-26.798-0.84-2.284-1.024-6.523-4.28-7.506-3.553 1.608-5.775 6.564-7.506 9.656z" fill="rgb(109, 179, 63)"></path></svg>